<svg xmlns="http://www.w3.org/2000/svg" width="1em" height="1em" viewBox="0 0 24 24"><path fill="currentColor" d="M12 2a10 10 0 1 0 0 20a10 10 0 0 0 0-20m7.72 9h-3.06a15 15 0 0 0-1.2-5.01A8.02 8.02 0 0 1 19.72 11M12 4c.88 0 2.26 1.65 3.02 5H8.98C9.74 5.65 11.12 4 12 4M4.28 13h3.06c.22 1.85.72 3.59 1.5 5.01A8.02 8.02 0 0 1 4.28 13m3.06-2H4.28a8.02 8.02 0 0 1 4.56-5.01A15 15 0 0 0 7.34 11M12 20c-.88 0-2.26-1.65-3.02-5h6.04C14.26 18.35 12.88 20 12 20m3.66-2.99c.78-1.42 1.28-3.16 1.5-5.01h3.06a8.02 8.02 0 0 1-4.56 5.01M8.75 13h6.5c-.22 1.86-.72 3.63-1.5 5.01H10.25c-.78-1.38-1.28-3.15-1.5-5.01"/></svg>
